<?xml version="1.0" ?><svg style="enable-background:new 0 0 32 32;" version="1.1" viewBox="0 0 32 32" xml:space="preserve" xmlns="http://www.w3.org/2000/svg" xmlns:xlink="http://www.w3.org/1999/xlink"><style type="text/css">
	.st0{fill:#c0c0c0;}
	.st1{fill:none;stroke:#222A30;stroke-width:1.8761;stroke-linejoin:round;stroke-miterlimit:10;}
	.st2{fill:#171715;}
	.st3{fill-rule:evenodd;clip-rule:evenodd;fill:#222A30;}
</style><g id="Layer_1"/><g id="icons"><g id="smiles"><path class="st0" d="M13.6,15.3c0,0.6-0.5,1.1-1.1,1.1c-0.6,0-1.1-0.5-1.1-1.1c0-0.6,0.5-1.1,1.1-1.1    C13.1,14.1,13.6,14.6,13.6,15.3z"/><path class="st0" d="M18.8,19.1c-0.4,1.1-1.5,2-2.8,2c-1.3,0-2.4-0.8-2.8-2c-0.1-0.3,0.1-0.6,0.4-0.6h4.7    C18.7,18.5,18.9,18.8,18.8,19.1z"/><path class="st0" d="M20.7,15.3c0,0.6-0.5,1.1-1.1,1.1c-0.6,0-1.1-0.5-1.1-1.1c0-0.6,0.5-1.1,1.1-1.1    C20.2,14.1,20.7,14.6,20.7,15.3z"/><path class="st0" d="M16,2C8.3,2,2,8.3,2,16c0,7.7,6.3,14,14,14c7.7,0,14-6.3,14-14C30,8.3,23.7,2,16,2z M12.9,24.8    c-2.7-0.9-4.8-3-5.7-5.7c-2.5-7.5,4.4-14.4,12-12c2.7,0.9,4.8,3,5.7,5.7C27.3,20.4,20.4,27.3,12.9,24.8z"/></g></g></svg>